<svg version="1" xmlns="http://www.w3.org/2000/svg" width="800" height="800" viewBox="0 0 600.000000 600.000000"><path d="M282.5 107.6c-29.5 4.2-50.6 10.3-68.7 19.6-13.2 6.8-18 13.2-19.2 25.8-.8 7.5.8 22.7 2.9 27.6 4.1 9.8 10.3 10.8 23.6 4 32.7-16.9 60.4-23.6 85.2-20.8 14 1.5 20.8 4.2 27.3 10.6 8.2 8.3 11.4 19.4 11.4 40.2v11.1l-26.7.6c-43.2 1-66.7 4.7-88.6 14.2-12.7 5.4-18.7 9.5-28.2 19-7 7-9.9 10.7-12.8 16.6-7.6 15.5-10.3 35.4-7.3 54.7 5.2 33.7 26.9 56.2 63.3 65.4 7.7 2 11.4 2.3 29.3 2.3 18.3 0 21.4-.3 29-2.3 16.1-4.4 32.7-13.5 46.3-25.4l6.7-6V375c0 18 .8 18.5 31 18.5 18.7 0 21.9-.2 24.7-1.8 6.9-3.7 6.5 3.9 6-104.9-.4-108.2-.2-104.7-6.8-124.3-4.3-12.8-8.1-18.8-17.8-28.5-13.2-13.1-29-20.4-53.6-24.6-8.6-1.5-49.9-2.8-57-1.8zM345 294.9v21.8l-8.2 7.9c-14 13.4-24.7 19.5-38 21.6-15.4 2.3-29.4-1.7-37.8-10.9-6.5-7.1-8.4-13.3-7.8-25.2.7-14.2 6.2-22.7 18.6-29 12-6.1 23.4-7.8 53-8l20.2-.1v21.9zM179 438.4c-19.3 2.8-58 14.4-62.8 18.8-7.8 7.4-5.9 17.3 4.2 21.9 6.6 3 13.1 2.4 24.8-2 32.8-12.5 54.3-15.7 73.4-11.1 4.5 1 13.5 4.2 20 7.1 39.1 16.9 51.9 19.8 88.2 19.9 32.3 0 52.4-2.7 125.7-16.9 19.8-3.8 51.3-9.3 70-12.1 18.7-2.8 34.9-5.5 36-6 1.3-.6-13.7-.8-41.5-.6l-43.5.3-36.5 5.1c-62.6 8.7-86.9 10.5-113.5 8.3-27.4-2.3-44.7-7-75.9-20.8-9.4-4.1-21.4-8.6-26.6-10-12-3-28.7-3.8-42-1.9z"/></svg>