<?xml version="1.0" standalone="no"?>
<!DOCTYPE svg PUBLIC "-//W3C//DTD SVG 20010904//EN"
 "http://www.w3.org/TR/2001/REC-SVG-20010904/DTD/svg10.dtd">
<svg version="1.0" xmlns="http://www.w3.org/2000/svg"
 width="260.000000pt" height="260.000000pt" viewBox="0 0 260.000000 260.000000"
 preserveAspectRatio="xMidYMid meet">
<metadata>
Created by potrace 1.11, written by Peter Selinger 2001-2013
</metadata>
<g transform="translate(0.000000,260.000000) scale(0.100000,-0.100000)"
fill="#000000" stroke="none">
<path d="M876 2317 c-15 -11 -20 -34 -25 -115 -6 -86 -12 -110 -39 -162 -18
-33 -32 -73 -32 -88 0 -19 -11 -39 -34 -61 -19 -18 -37 -47 -40 -64 -4 -17
-20 -45 -36 -62 -16 -16 -36 -49 -44 -73 -8 -23 -31 -62 -49 -87 -19 -25 -38
-62 -42 -82 -9 -49 -31 -73 -67 -73 l-28 0 0 -210 0 -210 23 0 c29 0 63 -35
73 -75 3 -16 19 -43 34 -60 16 -16 35 -47 44 -68 10 -25 25 -41 43 -48 15 -5
36 -23 46 -40 22 -39 41 -33 45 15 3 29 -4 48 -25 79 l-28 40 0 171 0 171 32
62 c18 34 36 81 39 105 8 50 29 97 49 104 14 6 25 32 44 102 8 27 21 48 39 59
37 24 39 28 47 97 3 34 12 72 19 85 13 23 14 23 23 5 32 -61 22 -154 -21 -191
-18 -16 -25 -35 -30 -86 -5 -46 -15 -76 -32 -99 -37 -52 -44 -74 -55 -187 -11
-104 -8 -185 9 -329 7 -59 16 -83 47 -127 20 -30 41 -74 47 -97 5 -24 19 -54
32 -68 12 -14 30 -46 40 -72 9 -25 28 -54 42 -63 14 -9 33 -33 41 -53 24 -58
33 -66 50 -42 8 12 12 27 9 35 -3 8 0 42 5 77 6 35 13 77 15 95 3 18 19 48 37
67 18 18 38 51 46 72 8 22 22 45 33 52 10 7 27 30 39 50 34 61 92 139 121 161
14 12 29 35 33 51 4 17 22 42 41 58 23 18 36 39 40 62 4 19 17 68 30 109 13
40 24 95 24 122 0 46 -5 73 -31 179 -6 25 -14 64 -18 88 -5 24 -19 54 -34 70
-14 15 -33 44 -42 64 -8 21 -31 52 -50 69 -18 17 -37 44 -40 59 -3 16 -18 36
-32 45 -14 10 -40 30 -57 46 -74 69 -256 209 -271 209 -5 0 -23 11 -40 24 -18
14 -45 28 -61 31 -16 4 -36 9 -45 11 -8 2 -23 -2 -33 -9z"/>
<path d="M2084 1081 c-27 -14 -62 -36 -77 -48 -15 -12 -47 -24 -70 -28 -23 -4
-60 -18 -82 -31 -22 -12 -60 -26 -85 -30 -24 -4 -68 -20 -98 -36 -30 -15 -62
-28 -72 -28 -24 0 -160 -69 -160 -81 0 -6 -20 -32 -45 -58 -36 -38 -45 -55
-45 -84 0 -39 21 -67 51 -67 22 0 26 -35 8 -84 -8 -22 -8 -39 0 -58 13 -35 46
-37 106 -8 26 13 78 24 133 29 55 5 101 15 116 25 14 9 51 23 81 31 31 8 69
25 85 37 16 13 52 41 80 63 37 29 60 58 81 103 22 44 36 62 50 62 18 0 19 9
19 160 0 122 -3 160 -12 159 -7 -1 -36 -14 -64 -28z m-353 -284 c-5 -5 -18 -7
-28 -3 -14 6 -15 9 -4 16 19 11 46 1 32 -13z m-101 -57 c-8 -5 -25 -10 -37
-10 -12 0 -25 -5 -29 -11 -4 -7 -10 -7 -16 -1 -19 19 3 32 50 32 34 0 43 -3
32 -10z m-117 -57 c2 -5 -5 -26 -17 -48 -16 -29 -27 -39 -41 -37 -28 5 -28 5
-9 51 12 32 22 41 39 41 13 0 26 -3 28 -7z"/>
</g>
</svg>
