<svg id="Слой_1" data-name="Слой 1" xmlns="http://www.w3.org/2000/svg" viewBox="0 0 216.29 390.92"><defs><style>.cls-1,.cls-10,.cls-7{fill-rule:evenodd;}.cls-12,.cls-13,.cls-2,.cls-3,.cls-4,.cls-5,.cls-6,.cls-8,.cls-9{fill:none;stroke-miterlimit:10;}.cls-2{stroke:#63a52f;}.cls-2,.cls-3{stroke-width:0.85px;}.cls-13,.cls-3,.cls-4{stroke:#000;}.cls-4{stroke-width:1.13px;}.cls-5{stroke:#fff;}.cls-13,.cls-5{stroke-width:1.42px;}.cls-12,.cls-6,.cls-8,.cls-9{stroke:#ea5a24;}.cls-6{stroke-width:7.09px;}.cls-11,.cls-7{fill:#ea5a24;}.cls-8{stroke-width:5.67px;}.cls-9{stroke-width:8.5px;}.cls-10{fill:#fff;}.cls-12{stroke-width:2.83px;}</style></defs><title>new_sprite</title><rect x="4.59" y="1.82" width="10.06" height="1.33"/><rect x="4.59" y="5" width="10.06" height="1.33"/><rect x="4.59" y="8.17" width="10.06" height="1.33"/><path class="cls-1" d="M121.3,21a1.7,1.7,0,0,1,1.39-.34,3.19,3.19,0,0,1,.51.09l.45,2.38c-.31.31-.88.62-.94,1-.11.74.45,1.45,1.08,2.15s1.13,1.36,1.93,1.36c.43,0,.88-.48,1.28-.77l1.47.85.6.28c.06.88.45,1.28-1,1.73s-3.8-.2-5.67-2.61S120,21.94,121.3,21Z" transform="translate(-15.07 -19.75)"/><polygon class="cls-2" points="210.32 1.38 211.42 4.75 214.97 4.75 212.08 6.82 213.18 10.17 210.32 8.1 207.46 10.17 208.56 6.82 205.7 4.75 209.24 4.75 210.32 1.38"/><polygon class="cls-3" points="160.32 1.38 161.42 4.75 164.97 4.75 162.08 6.82 163.18 10.17 160.32 8.1 157.46 10.17 158.56 6.82 155.7 4.75 159.24 4.75 160.32 1.38"/><polyline class="cls-4" points="10.28 58.85 6.88 55.25 10.28 51.65"/><path class="cls-5" d="M76.38,76.71l1.87,2.92M75.5,71.55a2.81,2.81,0,0,0-1.16,5.5,2.72,2.72,0,0,0,1.84-.23.71.71,0,0,0,.2-.11,2.72,2.72,0,0,0,1.3-1.81,2.82,2.82,0,0,0-2.18-3.34Z" transform="translate(-15.07 -19.75)"/><path class="cls-1" d="M117.64,66.23a3.83,3.83,0,0,1,2.86-.74c.34.06.71.14,1,.23l.91,4.88c-.65.62-1.81,1.3-1.93,2.1-.23,1.53,1,2.95,2.21,4.42s2.35,2.81,4,2.81c.88,0,1.84-1,2.64-1.53l3.06,1.7,1.19.6c.14,1.81,1,2.64-2,3.57s-7.8-.4-11.65-5.39-4.9-10.63-2.3-12.64Z" transform="translate(-15.07 -19.75)"/><path class="cls-6" d="M66.12,184.28a34.2,34.2,0,1,0-34.19-34.19,34.27,34.27,0,0,0,34.19,34.19Z" transform="translate(-15.07 -19.75)"/><path class="cls-6" d="M157.94,184.28a34.2,34.2,0,1,0-34.21-34.19,34.26,34.26,0,0,0,34.21,34.19Z" transform="translate(-15.07 -19.75)"/><path class="cls-7" d="M17.9,146.92H29.7a2.86,2.86,0,0,1,2.83,2.83v.65a2.84,2.84,0,0,1-2.83,2.83H17.9a2.84,2.84,0,0,1-2.83-2.83v-.65a2.86,2.86,0,0,1,2.83-2.83Z" transform="translate(-15.07 -19.75)"/><path class="cls-7" d="M194.3,146.92H206.1a2.86,2.86,0,0,1,2.83,2.83v.65a2.84,2.84,0,0,1-2.83,2.83H194.3a2.84,2.84,0,0,1-2.83-2.83v-.65a2.86,2.86,0,0,1,2.83-2.83Z" transform="translate(-15.07 -19.75)"/><path class="cls-8" d="M99.23,148.56a18.9,18.9,0,0,1,24.09,0" transform="translate(-15.07 -19.75)"/><path class="cls-9" d="M35.89,348.27H68.41A14.49,14.49,0,0,1,82.83,362.7V392a14.47,14.47,0,0,1-14.43,14.43H35.89A14.49,14.49,0,0,1,21.44,392V362.7a14.49,14.49,0,0,1,14.46-14.43Z" transform="translate(-15.07 -19.75)"/><path class="cls-9" d="M101.57,361.51c5.1-2.07,15.17-7.82,15.17,2.75v26.19c0,10.54-10.06,4.79-15.17,2.72-3.2-1.28-6.32-2.83-6.32-6.29v-19c0-3.49,3.09-5,6.32-6.32Z" transform="translate(-15.07 -19.75)"/><path class="cls-7" d="M23.13,227.19l18.57-5.5a2.12,2.12,0,0,1,2.64,1.45l.17.57a2.12,2.12,0,0,1-1.42,2.64l-18.57,5.5a2.1,2.1,0,0,1-2.64-1.45l-.17-.57a2.13,2.13,0,0,1,1.42-2.64Z" transform="translate(-15.07 -19.75)"/><path class="cls-7" d="M44.19,223.11l20.55,57.23A2.1,2.1,0,0,1,63.38,283l-.54.17a2.15,2.15,0,0,1-2.69-1.36l-20.58-57.2a2.13,2.13,0,0,1,1.36-2.69l.57-.2a2.16,2.16,0,0,1,2.69,1.36Z" transform="translate(-15.07 -19.75)"/><path class="cls-7" d="M66.84,311.83a16,16,0,1,0-16-16,16,16,0,0,0,16,16Z" transform="translate(-15.07 -19.75)"/><path class="cls-10" d="M66.84,304.8a9,9,0,1,0-9-9,9,9,0,0,0,9,9Z" transform="translate(-15.07 -19.75)"/><path class="cls-7" d="M66.84,299.67A3.84,3.84,0,1,0,63,295.85a3.84,3.84,0,0,0,3.83,3.83Z" transform="translate(-15.07 -19.75)"/><path class="cls-7" d="M80.85,289.81l38.69-15a2.11,2.11,0,0,1,2.75,1.19l.23.54a2.14,2.14,0,0,1-1.19,2.78l-38.69,15a2.11,2.11,0,0,1-2.75-1.19l-.23-.54a2.14,2.14,0,0,1,1.19-2.78Z" transform="translate(-15.07 -19.75)"/><rect class="cls-11" x="79.43" y="255.77" width="21.77" height="21.74" transform="translate(-104.56 30.28) rotate(-20.98)"/><rect class="cls-11" x="71.35" y="235.36" width="14" height="13.97" transform="translate(-96.73 24.44) rotate(-21)"/><path class="cls-7" d="M152,259.43h4.68a7.46,7.46,0,0,1,7.43,7.46v13.69a7.48,7.48,0,0,1-7.43,7.46H152a7.5,7.5,0,0,1-7.46-7.46V266.88a7.48,7.48,0,0,1,7.46-7.46Z" transform="translate(-15.07 -19.75)"/><path class="cls-12" d="M154.44,257.39l.06-11.54a28.09,28.09,0,0,1,27.95-28H191a28,28,0,0,1,28,28l-.06,10.74" transform="translate(-15.07 -19.75)"/><path class="cls-7" d="M216.78,259.43h4.65a7.46,7.46,0,0,1,7.46,7.46v13.69a7.48,7.48,0,0,1-7.46,7.46h-4.65a7.48,7.48,0,0,1-7.46-7.46V266.88a7.46,7.46,0,0,1,7.46-7.46Z" transform="translate(-15.07 -19.75)"/><path class="cls-12" d="M219.44,290.44a16.42,16.42,0,0,1-13.95,16.81" transform="translate(-15.07 -19.75)"/><path class="cls-7" d="M185.31,311.7l-.37-3.12a5,5,0,0,1,4.37-5.53l9.13-1.11a5,5,0,0,1,5.56,4.39l.37,3.09A5,5,0,0,1,200,315l-9.1,1.08a5,5,0,0,1-5.56-4.37Z" transform="translate(-15.07 -19.75)"/><line class="cls-13" x1="62.69" y1="8.17" x2="57.17" y2="2.33"/><line class="cls-13" x1="57.17" y1="8.17" x2="62.69" y2="2.33"/></svg>