<?xml version="1.0" encoding="utf-8"?>
<!-- Generator: Adobe Illustrator 21.1.0, SVG Export Plug-In . SVG Version: 6.00 Build 0)  -->
<svg version="1.1" id="Слой_1" xmlns="http://www.w3.org/2000/svg" xmlns:xlink="http://www.w3.org/1999/xlink" x="0px" y="0px"
	 viewBox="0 0 121.6 29.1" style="enable-background:new 0 0 121.6 29.1;" xml:space="preserve">
<style type="text/css">
	.st0{enable-background:new    ;}
	.st1{font-family:'inglobal-Bold';}
	.st2{font-size:27.34px;}
</style>
<title>new_logo</title>
<g class="st0">
	<path d="M14,14.8l0,5.8c0,0.6-0.2,1.2-0.7,1.6c-0.4,0.4-0.9,0.7-1.6,0.7c-1,0-1.6-0.4-2-1.3l-0.1-0.3c-0.9,1.3-2.2,2-4.1,2
		c-0.9,0-1.7-0.2-2.4-0.5c-0.7-0.3-1.3-0.8-1.8-1.4c-0.5-0.6-0.7-1.4-0.7-2.3c0-0.9,0.3-1.7,0.8-2.3c0.5-0.6,1.2-1.1,2-1.5
		c0.8-0.4,1.6-0.6,2.5-0.8c0.9-0.2,1.8-0.2,2.6-0.2h0.9c0-0.9-0.2-1.5-0.6-2.1s-1.1-0.8-1.9-0.8c-0.4,0-0.7,0.1-0.9,0.2
		c-0.2,0.1-0.5,0.4-0.9,0.7c-0.3,0.3-0.6,0.5-0.9,0.7C4,13,3.7,13.1,3.3,13.1c-0.4,0-0.8-0.1-1.2-0.3c-0.3-0.2-0.5-0.6-0.5-1
		c0-0.6,0.3-1,1-1.4C3.3,10.1,4.1,9.9,5,9.8c0.9-0.1,1.6-0.2,2.2-0.2c1.5,0,2.8,0.2,3.9,0.7c0.3,0.1,0.5,0.2,0.7,0.3
		c0.8,0.5,1.4,1,1.7,1.7C13.8,13,14,13.8,14,14.8z M9.6,15.9H9.1c-1.1,0-2,0.3-2.7,0.8c-0.8,0.5-1.1,1.3-1.1,2.3
		c0,0.5,0.2,1,0.5,1.4C6,20.8,6.4,21,6.9,21c0.8,0,1.5-0.4,2.1-1.3c0.3-0.4,0.4-0.9,0.5-1.3c0.1-0.4,0.1-0.9,0.1-1.6V15.9z"/>
</g>
<g class="st0">
	<path d="M28.4,9.6c1.5,0,2.2,0.7,2.2,2.2V21c0,1.5-0.7,2.2-2.2,2.2c-1.5,0-2.2-0.7-2.2-2.2l0-6.5l-4.8,7.5c-0.4,0.8-1.1,1.2-2,1.2
		c-1.5,0-2.2-0.7-2.2-2.2v-9.2c0-1.5,0.7-2.2,2.2-2.2c1.5,0,2.2,0.7,2.2,2.2v6.5l4.9-7.8C27,9.9,27.6,9.6,28.4,9.6z M20.8,7.6
		c-0.4-0.4-0.8-0.8-1.1-1.3c-0.3-0.5-0.5-1-0.5-1.5c0-0.5,0.2-0.8,0.6-0.8c0.2,0,0.5,0.3,0.9,0.8c0.4,0.5,0.9,1,1.4,1.3
		c0.5,0.3,1.2,0.5,2.1,0.5c0.6,0,1.3-0.2,1.9-0.5C26.7,6,27.2,5.5,27.6,5c0.1-0.2,0.2-0.3,0.3-0.4c0.1-0.1,0.2-0.2,0.3-0.3
		c0.1-0.1,0.2-0.1,0.4-0.1c0.3,0,0.5,0.2,0.5,0.7c0,0.4-0.1,0.7-0.3,1.2c-0.2,0.4-0.5,0.8-0.7,1.1c-1,1.1-2.3,1.6-3.9,1.6
		C22.9,8.8,21.8,8.4,20.8,7.6z"/>
</g>
<text transform="matrix(1 0 0 1 31.76 23.24)" class="st1 st2"> </text>
<g class="st0">
	<path d="M53,22.1c0.2,0.5,0.3,1.1,0.3,1.7c0,0.3-0.1,0.5-0.3,0.7c-0.2,0.2-0.4,0.3-0.7,0.3c-0.3-0.1-0.7-0.3-1-0.6
		c-0.3-0.3-0.6-0.5-0.8-0.7c-0.2-0.1-0.5-0.2-1.1-0.2h-7.5c-0.5,0-0.9,0.1-1.1,0.2c-0.2,0.1-0.5,0.4-0.8,0.7c-0.3,0.3-0.7,0.5-1,0.6
		c-0.3,0-0.5-0.1-0.7-0.3c-0.2-0.2-0.3-0.4-0.3-0.7c0.1-1.1,0.2-1.7,0.3-1.8c0.1-0.2,0.2-0.3,0.4-0.4c0.3-0.1,0.5-0.2,0.6-0.2l0.4,0
		c1.5-5.7,2.8-9.2,3.8-10.8c0.5-0.8,1.2-1.2,2-1.2h0.1c0.9,0,1.7,0.4,2.2,1.1c0.9,1.3,2.3,4.9,4.1,10.8c0.3,0.2,0.5,0.3,0.7,0.4
		C52.8,21.8,52.9,21.9,53,22.1z M44.7,12.7c-0.9,2-1.9,4.8-2.8,8.6h5.8C46.4,17.1,45.5,14.2,44.7,12.7z"/>
</g>
<g class="st0">
	<path d="M66.9,14.8l0,5.8c0,0.6-0.2,1.2-0.7,1.6c-0.4,0.4-0.9,0.7-1.6,0.7c-1,0-1.6-0.4-2-1.3l-0.1-0.3c-0.9,1.3-2.2,2-4.1,2
		c-0.9,0-1.7-0.2-2.4-0.5c-0.7-0.3-1.3-0.8-1.8-1.4c-0.5-0.6-0.7-1.4-0.7-2.3c0-0.9,0.3-1.7,0.8-2.3c0.5-0.6,1.2-1.1,2-1.5
		c0.8-0.4,1.6-0.6,2.5-0.8c0.9-0.2,1.8-0.2,2.6-0.2h0.9c0-0.9-0.2-1.5-0.6-2.1c-0.4-0.5-1.1-0.8-1.9-0.8c-0.4,0-0.7,0.1-0.9,0.2
		c-0.2,0.1-0.5,0.4-0.9,0.7c-0.3,0.3-0.6,0.5-0.9,0.7c-0.3,0.1-0.6,0.2-0.9,0.2c-0.4,0-0.8-0.1-1.2-0.3c-0.3-0.2-0.5-0.6-0.5-1
		c0-0.6,0.3-1,1-1.4c0.7-0.3,1.5-0.6,2.3-0.7c0.9-0.1,1.6-0.2,2.2-0.2c1.5,0,2.8,0.2,3.9,0.7c0.3,0.1,0.5,0.2,0.7,0.3
		c0.8,0.5,1.4,1,1.7,1.7C66.8,13,66.9,13.8,66.9,14.8z M62.5,15.9H62c-1.1,0-2,0.3-2.7,0.8c-0.8,0.5-1.1,1.3-1.1,2.3
		c0,0.5,0.2,1,0.5,1.4c0.3,0.4,0.7,0.6,1.3,0.6c0.8,0,1.5-0.4,2.1-1.3c0.3-0.4,0.4-0.9,0.5-1.3c0.1-0.4,0.1-0.9,0.1-1.6V15.9z"/>
</g>
<text transform="matrix(1 0 0 1 68.81 23.24)" class="st1 st2"> </text>
<g class="st0">
	<path d="M82.8,20.3c0.7,0.5,1.4,0.8,2.3,0.8c0.7,0,1.3-0.1,1.9-0.4c0.6-0.3,1.2-0.7,1.8-1.2c0.3-0.3,0.5-0.4,0.6-0.5
		c0.1-0.1,0.3-0.1,0.5-0.1c0.2,0,0.4,0.1,0.5,0.2c0.2,0.1,0.3,0.3,0.3,0.5c0,0.5-0.2,0.9-0.7,1.4c-0.5,0.5-1,0.9-1.5,1.2
		c-1.3,0.8-2.8,1.2-4.6,1.2c-0.9,0-1.8-0.2-2.7-0.5s-1.7-0.7-2.4-1.3c-0.7-0.6-1.2-1.3-1.7-2.1c-0.4-0.8-0.6-1.7-0.6-2.7
		c0-1.5,0.4-2.8,1.1-3.9c0.8-1.1,1.8-2,3.1-2.6c1.3-0.6,2.6-0.9,4.1-0.9c0.9,0,1.7,0.1,2.6,0.4c0.9,0.3,1.6,0.7,2.2,1.3
		c0.6,0.6,0.9,1.4,0.9,2.3c0,0.9-0.4,1.7-1.1,2.3c-0.7,0.6-1.6,1.1-2.7,1.4c-0.5,0.2-1,0.3-1.6,0.4c-0.6,0.1-1.2,0.2-1.9,0.3
		c-0.7,0.1-1.3,0.2-1.6,0.2C81.8,19.1,82.2,19.8,82.8,20.3z M84.7,15.5c1-0.5,1.5-1.3,1.5-2.3c0-0.5-0.1-1-0.4-1.3
		c-0.3-0.3-0.7-0.5-1.2-0.5c-1,0-1.8,0.5-2.4,1.5c-0.6,1-0.9,2.2-0.9,3.4C82.5,16.3,83.6,16,84.7,15.5z"/>
</g>
<g class="st0">
	<path d="M105.9,22.1c0.2,0.5,0.3,1.1,0.3,1.7c0,0.3-0.1,0.5-0.3,0.7c-0.2,0.2-0.4,0.3-0.7,0.3c-0.3-0.1-0.7-0.3-1-0.6
		c-0.3-0.3-0.6-0.5-0.8-0.7c-0.2-0.1-0.5-0.2-1.1-0.2h-7.5c-0.5,0-0.9,0.1-1.1,0.2c-0.2,0.1-0.5,0.4-0.8,0.7c-0.3,0.3-0.7,0.5-1,0.6
		c-0.3,0-0.5-0.1-0.7-0.3c-0.2-0.2-0.3-0.4-0.3-0.7c0.1-1.1,0.2-1.7,0.3-1.8c0.1-0.2,0.2-0.3,0.4-0.4c0.3-0.1,0.5-0.2,0.6-0.2l0.4,0
		c1.5-5.7,2.8-9.2,3.8-10.8c0.5-0.8,1.2-1.2,2-1.2h0.1c0.9,0,1.7,0.4,2.2,1.1c0.9,1.3,2.3,4.9,4.1,10.8c0.3,0.2,0.5,0.3,0.7,0.4
		C105.7,21.8,105.9,21.9,105.9,22.1z M97.6,12.7c-0.9,2-1.9,4.8-2.8,8.6h5.8C99.3,17.1,98.4,14.2,97.6,12.7z"/>
</g>
<g class="st0">
	<path d="M119.8,14.8l0,5.8c0,0.6-0.2,1.2-0.7,1.6c-0.4,0.4-0.9,0.7-1.6,0.7c-1,0-1.6-0.4-2-1.3l-0.1-0.3c-0.9,1.3-2.2,2-4.1,2
		c-0.9,0-1.7-0.2-2.4-0.5c-0.7-0.3-1.3-0.8-1.8-1.4c-0.5-0.6-0.7-1.4-0.7-2.3c0-0.9,0.3-1.7,0.8-2.3c0.5-0.6,1.2-1.1,2-1.5
		c0.8-0.4,1.6-0.6,2.5-0.8c0.9-0.2,1.8-0.2,2.6-0.2h0.9c0-0.9-0.2-1.5-0.6-2.1c-0.4-0.5-1.1-0.8-1.9-0.8c-0.4,0-0.7,0.1-0.9,0.2
		c-0.2,0.1-0.5,0.4-0.9,0.7c-0.3,0.3-0.6,0.5-0.9,0.7c-0.3,0.1-0.6,0.2-0.9,0.2c-0.4,0-0.8-0.1-1.2-0.3c-0.3-0.2-0.5-0.6-0.5-1
		c0-0.6,0.3-1,1-1.4c0.7-0.3,1.5-0.6,2.3-0.7c0.9-0.1,1.6-0.2,2.2-0.2c1.5,0,2.8,0.2,3.9,0.7c0.3,0.1,0.5,0.2,0.7,0.3
		c0.8,0.5,1.4,1,1.7,1.7C119.7,13,119.8,13.8,119.8,14.8z M115.4,15.9h-0.5c-1.1,0-2,0.3-2.7,0.8c-0.8,0.5-1.1,1.3-1.1,2.3
		c0,0.5,0.2,1,0.5,1.4c0.3,0.4,0.7,0.6,1.3,0.6c0.8,0,1.5-0.4,2.1-1.3c0.3-0.4,0.4-0.9,0.5-1.3c0.1-0.4,0.1-0.9,0.1-1.6V15.9z"/>
</g>
</svg>
