<svg id="Слой_1" data-name="Слой 1" xmlns="http://www.w3.org/2000/svg" viewBox="0 0 250 600"><defs><style>.cls-1,.cls-11,.cls-2,.cls-4,.cls-9{fill-rule:evenodd;}.cls-2,.cls-3{fill:#e36671;}.cls-4,.cls-5{fill:#63a52f;}.cls-6{fill:red;}.cls-7{fill:#b3b3b3;}.cls-8,.cls-9{fill:#fff;}.cls-10{fill:#999;}.cls-11,.cls-13{fill:#214bfc;}.cls-12{fill:#686c70;}.cls-14{fill:#54b4e3;}.cls-15{fill:#5885fd;}.cls-16{fill:#e35562;}.cls-17{fill:#417b19;}.cls-18{fill:#2279b7;}</style></defs><title>sprite</title><path class="cls-1" d="M245.28,19.94a2.12,2.12,0,0,1,1.62-.4,5,5,0,0,1,.57.11l.51,2.69c-.37.37-1,.74-1.08,1.19-.14.85.54,1.64,1.22,2.47s1.3,1.56,2.21,1.53c.48,0,1-.54,1.47-.85l1.7,1,.65.34c.09,1,.54,1.45-1.11,2s-4.34-.23-6.49-3-2.72-5.92-1.28-7Z" transform="translate(-124)"/><path d="M302.74,30.66l-4-2.92-4,2.92L296.3,26l-4-2.88h4.92l1.53-4.67,1.5,4.67h4.94l-4,2.88Zm-4-4,2.36,1.73-.91-2.78,2.36-1.71h-2.94l-.89-2.76-.91,2.76h-2.91l2.36,1.71-.91,2.78Z" transform="translate(-124)"/><rect x="20.12" y="20.5" width="9.3" height="1.5"/><rect x="20.12" y="24.07" width="13.15" height="1.5"/><rect x="20.12" y="27.64" width="9.3" height="1.5"/><path d="M201.66,31.33l-2-3a4,4,0,0,1-2.34.18A4.1,4.1,0,0,1,196,21.09a4.11,4.11,0,0,1,4.93,6.54l1.93,2.92Zm-3.47-9.48A2.69,2.69,0,0,0,195.58,24a2.7,2.7,0,0,0,2.09,3.18,2.59,2.59,0,0,0,1.73-.22l.1,0,.13-.08a2.68,2.68,0,0,0-.87-4.91h0A2.64,2.64,0,0,0,198.19,21.85Z" transform="translate(-124)"/><path d="M148.68,378.82a.26.26,0,0,1-.1.22.68.68,0,0,1-.31.11,4.26,4.26,0,0,1-.63,0,4.34,4.34,0,0,1-.65,0,.56.56,0,0,1-.29-.11.28.28,0,0,1-.08-.22v-.7a4,4,0,0,1-1.24.91,3.63,3.63,0,0,1-1.55.33,4.34,4.34,0,0,1-1.29-.18,2.91,2.91,0,0,1-1-.54,2.47,2.47,0,0,1-.67-.9,3.05,3.05,0,0,1-.24-1.25,2.83,2.83,0,0,1,.3-1.34,2.46,2.46,0,0,1,.9-.94,4.52,4.52,0,0,1,1.49-.55,10.7,10.7,0,0,1,2.07-.18h.86v-.53a2.83,2.83,0,0,0-.08-.73,1.22,1.22,0,0,0-.28-.52,1.15,1.15,0,0,0-.51-.31,2.77,2.77,0,0,0-.8-.1,4.11,4.11,0,0,0-1.12.14,6.33,6.33,0,0,0-.87.31q-.38.17-.63.31a.91.91,0,0,1-.41.14.29.29,0,0,1-.19-.07.5.5,0,0,1-.14-.2,1.36,1.36,0,0,1-.08-.32,2.58,2.58,0,0,1,0-.42,1.88,1.88,0,0,1,0-.49.75.75,0,0,1,.19-.32,1.83,1.83,0,0,1,.49-.32,5.71,5.71,0,0,1,.81-.32,7.54,7.54,0,0,1,1-.24,7.47,7.47,0,0,1,2.92.11,3,3,0,0,1,1.21.62,2.42,2.42,0,0,1,.69,1.08,5.06,5.06,0,0,1,.22,1.57ZM146.23,375h-1a5.15,5.15,0,0,0-1,.09,2,2,0,0,0-.69.27,1.1,1.1,0,0,0-.39.43,1.28,1.28,0,0,0-.12.58,1.11,1.11,0,0,0,.35.87,1.4,1.4,0,0,0,1,.32,1.83,1.83,0,0,0,1-.27,4,4,0,0,0,.9-.78Z" transform="translate(-124)"/><path d="M156,379.13l-1.07,3.13a.65.65,0,0,1-.49.36,4.7,4.7,0,0,1-1.16.11,4.61,4.61,0,0,1-.63,0,.9.9,0,0,1-.36-.11.26.26,0,0,1-.13-.2.65.65,0,0,1,.06-.29l1.18-3a.69.69,0,0,1-.23-.18.85.85,0,0,1-.15-.26l-3-8.12a1.68,1.68,0,0,1-.13-.53.36.36,0,0,1,.12-.29.79.79,0,0,1,.4-.14,5.62,5.62,0,0,1,.75,0l.67,0a1.18,1.18,0,0,1,.39.07.42.42,0,0,1,.21.18,1.91,1.91,0,0,1,.14.35l2.08,5.91h0l1.9-6a.66.66,0,0,1,.15-.34.65.65,0,0,1,.31-.12,4.94,4.94,0,0,1,.76,0,5.24,5.24,0,0,1,.71,0,.85.85,0,0,1,.42.15.36.36,0,0,1,.13.29,1.45,1.45,0,0,1-.08.43Z" transform="translate(-124)"/><path d="M168.09,378.79a.32.32,0,0,1,0,.18.36.36,0,0,1-.17.12,1.14,1.14,0,0,1-.32.07l-.5,0-.52,0a1.19,1.19,0,0,1-.32-.07A.39.39,0,0,1,166,379a.3.3,0,0,1-.05-.18v-1a5.68,5.68,0,0,1-1.43,1.14,3.76,3.76,0,0,1-3.37,0,3.27,3.27,0,0,1-1.14-1.05,4.57,4.57,0,0,1-.64-1.55,8.49,8.49,0,0,1-.2-1.87,8.15,8.15,0,0,1,.25-2.12,4.77,4.77,0,0,1,.74-1.6,3.27,3.27,0,0,1,1.21-1,3.72,3.72,0,0,1,1.67-.36,3,3,0,0,1,1.35.3,4.81,4.81,0,0,1,1.2.89V365.8a.3.3,0,0,1,.05-.18.4.4,0,0,1,.2-.13,1.7,1.7,0,0,1,.38-.08,6.15,6.15,0,0,1,1.21,0,1.61,1.61,0,0,1,.38.08.45.45,0,0,1,.2.13.29.29,0,0,1,.06.18Zm-2.48-5.9a5.48,5.48,0,0,0-1-1,1.71,1.71,0,0,0-1-.36,1.44,1.44,0,0,0-.84.24,1.77,1.77,0,0,0-.57.65,3.52,3.52,0,0,0-.32.91,5,5,0,0,0-.1,1,6.42,6.42,0,0,0,.09,1.08,3.41,3.41,0,0,0,.29.94,1.78,1.78,0,0,0,.54.66,1.4,1.4,0,0,0,.85.25,1.71,1.71,0,0,0,.5-.07,1.9,1.9,0,0,0,.5-.24,3.3,3.3,0,0,0,.52-.44,8.82,8.82,0,0,0,.59-.67Z" transform="translate(-124)"/><path d="M177.85,378.82a.26.26,0,0,1-.1.22.68.68,0,0,1-.31.11,4.25,4.25,0,0,1-.63,0,4.31,4.31,0,0,1-.65,0,.56.56,0,0,1-.29-.11.28.28,0,0,1-.08-.22v-.7a4,4,0,0,1-1.24.91,3.63,3.63,0,0,1-1.55.33,4.34,4.34,0,0,1-1.29-.18,2.91,2.91,0,0,1-1-.54,2.47,2.47,0,0,1-.67-.9,3.05,3.05,0,0,1-.24-1.25,2.83,2.83,0,0,1,.3-1.34,2.46,2.46,0,0,1,.9-.94,4.52,4.52,0,0,1,1.49-.55,10.7,10.7,0,0,1,2.07-.18h.86v-.53a2.79,2.79,0,0,0-.08-.73,1.21,1.21,0,0,0-.28-.52,1.15,1.15,0,0,0-.52-.31,2.75,2.75,0,0,0-.8-.1,4.11,4.11,0,0,0-1.12.14,6.33,6.33,0,0,0-.87.31q-.38.17-.63.31a.91.91,0,0,1-.41.14.29.29,0,0,1-.19-.07.5.5,0,0,1-.14-.2,1.36,1.36,0,0,1-.08-.32,2.58,2.58,0,0,1,0-.42,1.88,1.88,0,0,1,0-.49.75.75,0,0,1,.19-.32,1.83,1.83,0,0,1,.49-.32,5.71,5.71,0,0,1,.81-.32,7.54,7.54,0,0,1,1-.24,7.47,7.47,0,0,1,2.92.11,3,3,0,0,1,1.21.62,2.43,2.43,0,0,1,.69,1.08,5.06,5.06,0,0,1,.22,1.57ZM175.4,375h-1a5.15,5.15,0,0,0-1,.09,2,2,0,0,0-.69.27,1.1,1.1,0,0,0-.39.43,1.28,1.28,0,0,0-.12.58,1.11,1.11,0,0,0,.35.87,1.4,1.4,0,0,0,1,.32,1.83,1.83,0,0,0,1-.27,4,4,0,0,0,.9-.78Z" transform="translate(-124)"/><path d="M188.21,374.12a1,1,0,0,1-.2.67.73.73,0,0,1-.56.22h-5.38a3.64,3.64,0,0,0,.13,1,1.94,1.94,0,0,0,.43.78,1.86,1.86,0,0,0,.75.49,3.23,3.23,0,0,0,1.11.17,6.21,6.21,0,0,0,1.15-.09,7.55,7.55,0,0,0,.86-.21l.6-.21a1.13,1.13,0,0,1,.39-.09.29.29,0,0,1,.15,0,.26.26,0,0,1,.1.12.83.83,0,0,1,.05.25q0,.16,0,.41c0,.15,0,.27,0,.37a2.27,2.27,0,0,1,0,.26.61.61,0,0,1-.06.18.67.67,0,0,1-.1.14,1.19,1.19,0,0,1-.35.19,5.52,5.52,0,0,1-.73.23,10,10,0,0,1-1,.2,8.48,8.48,0,0,1-1.23.08,6.51,6.51,0,0,1-2.07-.3,3.68,3.68,0,0,1-1.48-.9,3.73,3.73,0,0,1-.89-1.52,7.15,7.15,0,0,1-.29-2.16,6.85,6.85,0,0,1,.31-2.12,4.45,4.45,0,0,1,.89-1.6,3.84,3.84,0,0,1,1.42-1,5.49,5.49,0,0,1,3.79,0,3.42,3.42,0,0,1,1.29.91A3.66,3.66,0,0,1,188,372a6,6,0,0,1,.24,1.72Zm-2.42-.71a2.57,2.57,0,0,0-.42-1.65,1.63,1.63,0,0,0-1.39-.6,1.81,1.81,0,0,0-.83.18,1.69,1.69,0,0,0-.58.48,2.18,2.18,0,0,0-.36.71,3.51,3.51,0,0,0-.14.88Z" transform="translate(-124)"/><path d="M198.14,378.79a.32.32,0,0,1,0,.18.36.36,0,0,1-.17.12,1.14,1.14,0,0,1-.32.07l-.5,0-.52,0a1.19,1.19,0,0,1-.32-.07.39.39,0,0,1-.18-.12.3.3,0,0,1-.05-.18v-1A5.68,5.68,0,0,1,194.6,379a3.76,3.76,0,0,1-3.37,0,3.27,3.27,0,0,1-1.14-1.05,4.57,4.57,0,0,1-.64-1.55,8.49,8.49,0,0,1-.2-1.87,8.2,8.2,0,0,1,.25-2.12,4.79,4.79,0,0,1,.74-1.6,3.26,3.26,0,0,1,1.21-1,3.72,3.72,0,0,1,1.67-.36,3,3,0,0,1,1.35.3,4.82,4.82,0,0,1,1.2.89V365.8a.31.31,0,0,1,.05-.18.41.41,0,0,1,.2-.13,1.7,1.7,0,0,1,.38-.08,6.16,6.16,0,0,1,1.21,0,1.61,1.61,0,0,1,.38.08.45.45,0,0,1,.2.13.29.29,0,0,1,.06.18Zm-2.48-5.9a5.51,5.51,0,0,0-1-1,1.72,1.72,0,0,0-1-.36,1.44,1.44,0,0,0-.84.24,1.78,1.78,0,0,0-.57.65,3.48,3.48,0,0,0-.32.91,5,5,0,0,0-.1,1,6.42,6.42,0,0,0,.09,1.08,3.37,3.37,0,0,0,.29.94,1.77,1.77,0,0,0,.54.66,1.4,1.4,0,0,0,.85.25,1.71,1.71,0,0,0,.5-.07,1.88,1.88,0,0,0,.5-.24,3.26,3.26,0,0,0,.52-.44,8.82,8.82,0,0,0,.59-.67Z" transform="translate(-124)"/><path d="M207.9,378.82a.26.26,0,0,1-.1.22.68.68,0,0,1-.31.11,4.25,4.25,0,0,1-.63,0,4.31,4.31,0,0,1-.65,0,.56.56,0,0,1-.29-.11.28.28,0,0,1-.08-.22v-.7a4,4,0,0,1-1.24.91,3.62,3.62,0,0,1-1.55.33,4.34,4.34,0,0,1-1.29-.18,2.91,2.91,0,0,1-1-.54,2.44,2.44,0,0,1-.67-.9,3,3,0,0,1-.24-1.25,2.82,2.82,0,0,1,.3-1.34,2.45,2.45,0,0,1,.9-.94,4.51,4.51,0,0,1,1.49-.55,10.7,10.7,0,0,1,2.07-.18h.86v-.53a2.79,2.79,0,0,0-.08-.73,1.21,1.21,0,0,0-.28-.52,1.15,1.15,0,0,0-.52-.31,2.75,2.75,0,0,0-.8-.1,4.11,4.11,0,0,0-1.12.14,6.44,6.44,0,0,0-.87.31q-.38.17-.63.31a.92.92,0,0,1-.41.14.3.3,0,0,1-.19-.07.51.51,0,0,1-.14-.2,1.36,1.36,0,0,1-.08-.32,2.7,2.7,0,0,1,0-.42,1.88,1.88,0,0,1,0-.49.75.75,0,0,1,.19-.32,1.87,1.87,0,0,1,.49-.32,5.71,5.71,0,0,1,.81-.32,7.54,7.54,0,0,1,1-.24,7.47,7.47,0,0,1,2.92.11,3,3,0,0,1,1.21.62,2.43,2.43,0,0,1,.69,1.08,5.06,5.06,0,0,1,.22,1.57ZM205.45,375h-1a5.15,5.15,0,0,0-1,.09,2,2,0,0,0-.69.27,1.12,1.12,0,0,0-.39.43,1.31,1.31,0,0,0-.12.58,1.11,1.11,0,0,0,.35.87,1.41,1.41,0,0,0,1,.32,1.83,1.83,0,0,0,1-.27,4,4,0,0,0,.9-.78Z" transform="translate(-124)"/><path class="cls-2" d="M160.22,383c8.42-2.07,5.58,1.39,16.19.48a58.43,58.43,0,0,1,9.24-.4c-7.11.74-2,.17-9,1-11,1.36-8.25-2.15-15.36-.23a1.65,1.65,0,0,1-1.45-.17c-.31-.26-.14-.57.34-.71Z" transform="translate(-124)"/><path class="cls-3" d="M172.14,384.56a14.56,14.56,0,0,1-4.79-.7c-1.5-.45-2.59-.77-6,.15a1.75,1.75,0,0,1-1.55-.2.44.44,0,0,1-.19-.43c0-.2.25-.37.57-.47h0c4.36-1.07,5.74-.66,7.48-.15s3.6,1.07,8.72.63l2.69-.23a25.71,25.71,0,0,1,3.59-.16h3v.23l-3.48.36c-1,.1-1,.1-1.64.18l-3.84.48A37.63,37.63,0,0,1,172.14,384.56Zm-7.24-1.37a8,8,0,0,1,2.51.45c1.6.48,3.58,1.07,9.26.37l3.83-.48c.65-.08.65-.08,1.64-.18l1.24-.13h-1.34a24.25,24.25,0,0,0-3,.16l-2.69.23c-5.16.44-7.18-.16-8.8-.64s-3.06-.91-7.36.15c-.23.07-.39.18-.41.3a.24.24,0,0,0,.11.21,1.54,1.54,0,0,0,1.34.15A14,14,0,0,1,164.9,383.19Z" transform="translate(-124)"/><path d="M148.68,428a.26.26,0,0,1-.1.22.68.68,0,0,1-.31.11,4.26,4.26,0,0,1-.63,0,4.34,4.34,0,0,1-.65,0,.56.56,0,0,1-.29-.11.28.28,0,0,1-.08-.22v-.7a4,4,0,0,1-1.24.91,3.63,3.63,0,0,1-1.55.33,4.34,4.34,0,0,1-1.29-.18,2.91,2.91,0,0,1-1-.54,2.47,2.47,0,0,1-.67-.9,3.05,3.05,0,0,1-.24-1.25,2.83,2.83,0,0,1,.3-1.34,2.46,2.46,0,0,1,.9-.94,4.52,4.52,0,0,1,1.49-.55,10.7,10.7,0,0,1,2.07-.18h.86v-.53a2.83,2.83,0,0,0-.08-.73,1.22,1.22,0,0,0-.28-.52,1.15,1.15,0,0,0-.51-.31,2.77,2.77,0,0,0-.8-.1,4.11,4.11,0,0,0-1.12.14,6.33,6.33,0,0,0-.87.31q-.38.17-.63.31a.91.91,0,0,1-.41.14.29.29,0,0,1-.19-.07.5.5,0,0,1-.14-.2,1.36,1.36,0,0,1-.08-.32,2.58,2.58,0,0,1,0-.42,1.88,1.88,0,0,1,0-.49.75.75,0,0,1,.19-.32,1.83,1.83,0,0,1,.49-.32,5.71,5.71,0,0,1,.81-.32,7.54,7.54,0,0,1,1-.24,7.47,7.47,0,0,1,2.92.11,3,3,0,0,1,1.21.62,2.42,2.42,0,0,1,.69,1.08,5.06,5.06,0,0,1,.22,1.57Zm-2.45-3.78h-1a5.15,5.15,0,0,0-1,.09,2,2,0,0,0-.69.27,1.1,1.1,0,0,0-.39.43,1.28,1.28,0,0,0-.12.58,1.11,1.11,0,0,0,.35.87,1.4,1.4,0,0,0,1,.32,1.83,1.83,0,0,0,1-.27,4,4,0,0,0,.9-.78Z" transform="translate(-124)"/><path d="M156,428.35l-1.07,3.13a.65.65,0,0,1-.49.36,4.7,4.7,0,0,1-1.16.11,4.61,4.61,0,0,1-.63,0,.9.9,0,0,1-.36-.11.26.26,0,0,1-.13-.2.65.65,0,0,1,.06-.29l1.18-3a.69.69,0,0,1-.23-.18.85.85,0,0,1-.15-.26l-3-8.12a1.68,1.68,0,0,1-.13-.53.36.36,0,0,1,.12-.29.79.79,0,0,1,.4-.14,5.62,5.62,0,0,1,.75,0l.67,0a1.18,1.18,0,0,1,.39.07.42.42,0,0,1,.21.18,1.91,1.91,0,0,1,.14.35l2.08,5.91h0l1.9-6a.66.66,0,0,1,.15-.34.65.65,0,0,1,.31-.12,4.94,4.94,0,0,1,.76,0,5.24,5.24,0,0,1,.71,0,.85.85,0,0,1,.42.15.36.36,0,0,1,.13.29,1.45,1.45,0,0,1-.08.43Z" transform="translate(-124)"/><path d="M168.09,428a.32.32,0,0,1,0,.18.36.36,0,0,1-.17.12,1.14,1.14,0,0,1-.32.07l-.5,0-.52,0a1.19,1.19,0,0,1-.32-.07.39.39,0,0,1-.18-.12A.3.3,0,0,1,166,428v-1a5.68,5.68,0,0,1-1.43,1.14,3.76,3.76,0,0,1-3.37,0,3.27,3.27,0,0,1-1.14-1.05,4.57,4.57,0,0,1-.64-1.55,8.49,8.49,0,0,1-.2-1.87,8.15,8.15,0,0,1,.25-2.12,4.77,4.77,0,0,1,.74-1.6,3.27,3.27,0,0,1,1.21-1,3.72,3.72,0,0,1,1.67-.36,3,3,0,0,1,1.35.3,4.81,4.81,0,0,1,1.2.89V415a.3.3,0,0,1,.05-.18.4.4,0,0,1,.2-.13,1.7,1.7,0,0,1,.38-.08,6.15,6.15,0,0,1,1.21,0,1.61,1.61,0,0,1,.38.08.45.45,0,0,1,.2.13.29.29,0,0,1,.06.18Zm-2.48-5.9a5.48,5.48,0,0,0-1-1,1.71,1.71,0,0,0-1-.36,1.44,1.44,0,0,0-.84.24,1.77,1.77,0,0,0-.57.65,3.52,3.52,0,0,0-.32.91,5,5,0,0,0-.1,1,6.42,6.42,0,0,0,.09,1.08,3.41,3.41,0,0,0,.29.94,1.78,1.78,0,0,0,.54.66,1.4,1.4,0,0,0,.85.25,1.71,1.71,0,0,0,.5-.07,1.9,1.9,0,0,0,.5-.24,3.3,3.3,0,0,0,.52-.44,8.81,8.81,0,0,0,.59-.67Z" transform="translate(-124)"/><path d="M177.85,428a.26.26,0,0,1-.1.22.68.68,0,0,1-.31.11,4.25,4.25,0,0,1-.63,0,4.31,4.31,0,0,1-.65,0,.56.56,0,0,1-.29-.11.28.28,0,0,1-.08-.22v-.7a4,4,0,0,1-1.24.91,3.63,3.63,0,0,1-1.55.33,4.34,4.34,0,0,1-1.29-.18,2.91,2.91,0,0,1-1-.54,2.47,2.47,0,0,1-.67-.9,3.05,3.05,0,0,1-.24-1.25,2.83,2.83,0,0,1,.3-1.34,2.46,2.46,0,0,1,.9-.94,4.52,4.52,0,0,1,1.49-.55,10.7,10.7,0,0,1,2.07-.18h.86v-.53a2.79,2.79,0,0,0-.08-.73,1.21,1.21,0,0,0-.28-.52,1.15,1.15,0,0,0-.52-.31,2.75,2.75,0,0,0-.8-.1,4.11,4.11,0,0,0-1.12.14,6.33,6.33,0,0,0-.87.31q-.38.17-.63.31a.91.91,0,0,1-.41.14.29.29,0,0,1-.19-.07.5.5,0,0,1-.14-.2,1.36,1.36,0,0,1-.08-.32,2.58,2.58,0,0,1,0-.42,1.88,1.88,0,0,1,0-.49.75.75,0,0,1,.19-.32,1.83,1.83,0,0,1,.49-.32,5.71,5.71,0,0,1,.81-.32,7.54,7.54,0,0,1,1-.24,7.47,7.47,0,0,1,2.92.11,3,3,0,0,1,1.21.62,2.43,2.43,0,0,1,.69,1.08,5.06,5.06,0,0,1,.22,1.57Zm-2.45-3.78h-1a5.15,5.15,0,0,0-1,.09,2,2,0,0,0-.69.27,1.1,1.1,0,0,0-.39.43,1.28,1.28,0,0,0-.12.58,1.11,1.11,0,0,0,.35.87,1.4,1.4,0,0,0,1,.32,1.83,1.83,0,0,0,1-.27,4,4,0,0,0,.9-.78Z" transform="translate(-124)"/><path d="M188.21,423.33a1,1,0,0,1-.2.67.73.73,0,0,1-.56.22h-5.38a3.64,3.64,0,0,0,.13,1,1.94,1.94,0,0,0,.43.78,1.86,1.86,0,0,0,.75.49,3.23,3.23,0,0,0,1.11.17,6.21,6.21,0,0,0,1.15-.09,7.55,7.55,0,0,0,.86-.21l.6-.21a1.13,1.13,0,0,1,.39-.09.29.29,0,0,1,.15,0,.26.26,0,0,1,.1.12.83.83,0,0,1,.05.25q0,.16,0,.41c0,.15,0,.27,0,.37a2.27,2.27,0,0,1,0,.26.61.61,0,0,1-.06.18.67.67,0,0,1-.1.14,1.19,1.19,0,0,1-.35.19,5.52,5.52,0,0,1-.73.23,10,10,0,0,1-1,.2,8.48,8.48,0,0,1-1.23.08,6.51,6.51,0,0,1-2.07-.3,3.68,3.68,0,0,1-1.48-.9,3.73,3.73,0,0,1-.89-1.52,7.15,7.15,0,0,1-.29-2.16,6.85,6.85,0,0,1,.31-2.12,4.45,4.45,0,0,1,.89-1.6,3.84,3.84,0,0,1,1.42-1,5.49,5.49,0,0,1,3.79,0,3.42,3.42,0,0,1,1.29.91,3.66,3.66,0,0,1,.74,1.37,6,6,0,0,1,.24,1.72Zm-2.42-.71a2.57,2.57,0,0,0-.42-1.65,1.63,1.63,0,0,0-1.39-.6,1.81,1.81,0,0,0-.83.18,1.69,1.69,0,0,0-.58.48,2.18,2.18,0,0,0-.36.71,3.51,3.51,0,0,0-.14.88Z" transform="translate(-124)"/><path d="M198.14,428a.32.32,0,0,1,0,.18.36.36,0,0,1-.17.12,1.14,1.14,0,0,1-.32.07l-.5,0-.52,0a1.19,1.19,0,0,1-.32-.07.39.39,0,0,1-.18-.12A.3.3,0,0,1,196,428v-1a5.68,5.68,0,0,1-1.43,1.14,3.76,3.76,0,0,1-3.37,0,3.27,3.27,0,0,1-1.14-1.05,4.57,4.57,0,0,1-.64-1.55,8.49,8.49,0,0,1-.2-1.87,8.2,8.2,0,0,1,.25-2.12,4.79,4.79,0,0,1,.74-1.6,3.26,3.26,0,0,1,1.21-1,3.72,3.72,0,0,1,1.67-.36,3,3,0,0,1,1.35.3,4.82,4.82,0,0,1,1.2.89V415a.31.31,0,0,1,.05-.18.41.41,0,0,1,.2-.13,1.7,1.7,0,0,1,.38-.08,6.16,6.16,0,0,1,1.21,0,1.61,1.61,0,0,1,.38.08.45.45,0,0,1,.2.13.29.29,0,0,1,.06.18Zm-2.48-5.9a5.51,5.51,0,0,0-1-1,1.72,1.72,0,0,0-1-.36,1.44,1.44,0,0,0-.84.24,1.78,1.78,0,0,0-.57.65,3.48,3.48,0,0,0-.32.91,5,5,0,0,0-.1,1,6.42,6.42,0,0,0,.09,1.08,3.37,3.37,0,0,0,.29.94,1.77,1.77,0,0,0,.54.66,1.4,1.4,0,0,0,.85.25,1.71,1.71,0,0,0,.5-.07,1.88,1.88,0,0,0,.5-.24,3.26,3.26,0,0,0,.52-.44,8.81,8.81,0,0,0,.59-.67Z" transform="translate(-124)"/><path d="M207.9,428a.26.26,0,0,1-.1.22.68.68,0,0,1-.31.11,4.25,4.25,0,0,1-.63,0,4.31,4.31,0,0,1-.65,0,.56.56,0,0,1-.29-.11.28.28,0,0,1-.08-.22v-.7a4,4,0,0,1-1.24.91,3.62,3.62,0,0,1-1.55.33,4.34,4.34,0,0,1-1.29-.18,2.91,2.91,0,0,1-1-.54,2.44,2.44,0,0,1-.67-.9,3,3,0,0,1-.24-1.25,2.82,2.82,0,0,1,.3-1.34,2.45,2.45,0,0,1,.9-.94,4.51,4.51,0,0,1,1.49-.55,10.7,10.7,0,0,1,2.07-.18h.86v-.53a2.79,2.79,0,0,0-.08-.73,1.21,1.21,0,0,0-.28-.52,1.15,1.15,0,0,0-.52-.31,2.75,2.75,0,0,0-.8-.1,4.11,4.11,0,0,0-1.12.14,6.44,6.44,0,0,0-.87.31q-.38.17-.63.31a.92.92,0,0,1-.41.14.3.3,0,0,1-.19-.07.51.51,0,0,1-.14-.2,1.36,1.36,0,0,1-.08-.32,2.7,2.7,0,0,1,0-.42,1.88,1.88,0,0,1,0-.49.75.75,0,0,1,.19-.32,1.87,1.87,0,0,1,.49-.32,5.71,5.71,0,0,1,.81-.32,7.54,7.54,0,0,1,1-.24,7.47,7.47,0,0,1,2.92.11,3,3,0,0,1,1.21.62,2.43,2.43,0,0,1,.69,1.08,5.06,5.06,0,0,1,.22,1.57Zm-2.45-3.78h-1a5.15,5.15,0,0,0-1,.09,2,2,0,0,0-.69.27,1.12,1.12,0,0,0-.39.43,1.31,1.31,0,0,0-.12.58,1.11,1.11,0,0,0,.35.87,1.41,1.41,0,0,0,1,.32,1.83,1.83,0,0,0,1-.27,4,4,0,0,0,.9-.78Z" transform="translate(-124)"/><path class="cls-4" d="M160.22,432.23c8.42-2.07,5.58,1.39,16.19.48a58.43,58.43,0,0,1,9.24-.4c-7.11.74-2,.17-9,1-11,1.36-8.25-2.15-15.36-.23a1.65,1.65,0,0,1-1.45-.17c-.31-.26-.14-.57.34-.71Z" transform="translate(-124)"/><path class="cls-5" d="M172.14,433.77a14.56,14.56,0,0,1-4.79-.7c-1.5-.45-2.59-.77-6,.15a1.75,1.75,0,0,1-1.55-.2.44.44,0,0,1-.19-.43c0-.2.25-.37.57-.47h0c4.37-1.07,5.74-.67,7.48-.15s3.6,1.07,8.72.63l2.69-.23a25.22,25.22,0,0,1,3.59-.16h3v.23l-3.48.36c-1,.1-1,.1-1.64.18l-3.84.48A37.63,37.63,0,0,1,172.14,433.77Zm-7.24-1.37a8,8,0,0,1,2.51.45c1.6.48,3.58,1.07,9.26.37l3.83-.48c.65-.08.65-.08,1.64-.18l1.24-.13h-1.33a24.22,24.22,0,0,0-3,.16l-2.7.24c-5.16.44-7.18-.16-8.8-.64s-3.06-.91-7.36.15c-.23.07-.39.18-.41.3a.24.24,0,0,0,.11.21,1.54,1.54,0,0,0,1.34.15A14,14,0,0,1,164.9,432.41Z" transform="translate(-124)"/><rect class="cls-6" x="245" width="5" height="5"/><rect class="cls-6" width="5" height="5"/><rect class="cls-6" x="245" y="595" width="5" height="5"/><rect class="cls-6" y="595" width="5" height="5"/><path d="M348.38,375.67v.89h2.1a.19.19,0,0,1,.17.12,1,1,0,0,1,.07.45,1.15,1.15,0,0,1-.06.45.19.19,0,0,1-.17.13h-2.1v1.38a.23.23,0,0,1,0,.12.25.25,0,0,1-.13.09l-.26.05-.43,0-.43,0-.27-.05a.29.29,0,0,1-.14-.09.2.2,0,0,1,0-.12v-1.38H346q-.1,0-.17-.13a1.16,1.16,0,0,1-.06-.45,1.24,1.24,0,0,1,.06-.45.17.17,0,0,1,.16-.12h.66v-.89H346q-.1,0-.16-.13a1.31,1.31,0,0,1-.06-.45,1.05,1.05,0,0,1,.07-.44c0-.08.1-.13.16-.13h.64v-3.43a.64.64,0,0,1,.17-.49.63.63,0,0,1,.45-.16h2.27a4.12,4.12,0,0,1,1.14.16,2.78,2.78,0,0,1,1,.48,2.33,2.33,0,0,1,.65.8,2.49,2.49,0,0,1,.24,1.13,2.79,2.79,0,0,1-.22,1.15,2.22,2.22,0,0,1-.65.84,2.91,2.91,0,0,1-1,.51,5.12,5.12,0,0,1-1.39.17Zm0-4.08v2.92h.81a2.23,2.23,0,0,0,.72-.1,1.13,1.13,0,0,0,.47-.29,1.11,1.11,0,0,0,.25-.47,2.33,2.33,0,0,0,.08-.62,1.75,1.75,0,0,0-.14-.75,1.09,1.09,0,0,0-.36-.44,1.28,1.28,0,0,0-.5-.2,3.24,3.24,0,0,0-.55,0Z" transform="translate(-124)"/><path class="cls-7" d="M294.61,81.43l1.71-5.18-4.39-3.17h5.4L299,67.93l1.67,5.15h5.43l-4.39,3.17,1.67,5.17L299,78.22ZM299,77.17l2.77,2-1.05-3.27,2.76-2h-3.42L299,70.68l-1.05,3.24h-3.39l2.76,2-1.07,3.26Z" transform="translate(-124)"/><polygon class="cls-8" points="22.17 128.33 19.64 123.42 17.83 123.42 17.83 122 20.51 122 23.03 126.91 27.34 126.88 28.91 123.75 30.18 124.39 28.22 128.29 22.17 128.33"/><path class="cls-8" d="M147.45,132a1.12,1.12,0,1,1,1.13-1.13A1.12,1.12,0,0,1,147.45,132Zm0-1.39a.27.27,0,0,0-.28.25c0,.32.57.32.57,0A.27.27,0,0,0,147.45,130.56Z" transform="translate(-124)"/><path class="cls-8" d="M150.76,132a1.12,1.12,0,1,1,1.13-1.13A1.12,1.12,0,0,1,150.76,132Zm0-1.39a.27.27,0,0,0-.25.25.27.27,0,0,0,.25.28.28.28,0,0,0,.28-.28A.27.27,0,0,0,150.76,130.56Z" transform="translate(-124)"/><path class="cls-8" d="M149.93,124.61l-3.42-2L148,120l3.39,2Zm-2.45-2.23,2.19,1.26.78-1.37L148.28,121Z" transform="translate(-124)"/><path class="cls-8" d="M253.06,124.32a2.75,2.75,0,0,1,0,.41.87.87,0,0,1-.08.26.35.35,0,0,1-.12.14.27.27,0,0,1-.15,0H250v2.92a.27.27,0,0,1,0,.15.35.35,0,0,1-.15.11,1.08,1.08,0,0,1-.28.07,3.67,3.67,0,0,1-.86,0,1.06,1.06,0,0,1-.28-.07.37.37,0,0,1-.15-.11.25.25,0,0,1,0-.15v-2.92h-2.67a.25.25,0,0,1-.14,0,.37.37,0,0,1-.12-.14,1,1,0,0,1-.08-.26,2.25,2.25,0,0,1,0-.41,2.62,2.62,0,0,1,0-.4.94.94,0,0,1,.07-.27.36.36,0,0,1,.11-.14.23.23,0,0,1,.14,0h2.7v-2.91a.29.29,0,0,1,0-.16.34.34,0,0,1,.15-.12,1.06,1.06,0,0,1,.28-.07,3.6,3.6,0,0,1,.86,0,1.08,1.08,0,0,1,.28.07.32.32,0,0,1,.15.12.31.31,0,0,1,0,.16v2.91h2.71a.24.24,0,0,1,.13,0,.35.35,0,0,1,.11.14,1,1,0,0,1,.07.27A2.77,2.77,0,0,1,253.06,124.32Z" transform="translate(-124)"/><path class="cls-8" d="M202.62,125a1.62,1.62,0,0,1,0,.4.83.83,0,0,1-.09.28.28.28,0,0,1-.11.14.26.26,0,0,1-.14,0h-7.31a.31.31,0,0,1-.14,0,.62.62,0,0,1-.11-.14c0-.09-.06-.17-.09-.28a1.62,1.62,0,0,1,0-.4,1.88,1.88,0,0,1,0-.43,1.32,1.32,0,0,1,.09-.26.36.36,0,0,1,.11-.17.17.17,0,0,1,.11,0h7.37a.17.17,0,0,1,.11,0,.36.36,0,0,1,.11.17c.06.06.06.14.09.26a1.88,1.88,0,0,1,0,.43Z" transform="translate(-124)"/><polygon class="cls-8" points="174.94 129.51 170.69 125.02 174.94 120.49 175.77 121.26 172.25 125.01 175.77 128.74 174.94 129.51"/><rect class="cls-8" x="171.84" y="124.38" width="7.48" height="1.28"/><path d="M201.8,180.19h-5.61a.92.92,0,0,1-.92-.92v-1.67a2.06,2.06,0,0,1,2.06-2.06H198v.35a1,1,0,0,0,1,1.06,1,1,0,0,0,1-1v-.35l.35-.08h.4a2,2,0,0,1,2,2.06v1.67A.92.92,0,0,1,201.8,180.19Zm-4.5-3.94a1.35,1.35,0,0,0-1.33,1.35v1.67a.21.21,0,0,0,.21.21h5.61a.22.22,0,0,0,.21-.21v-1.67a1.35,1.35,0,0,0-1.32-1.35h-.07a1.68,1.68,0,0,1-3.32,0Z" transform="translate(-124)"/><path class="cls-1" d="M198.48,170.79a2.14,2.14,0,1,1-1.39,2.52,2.05,2.05,0,0,1,1.39-2.52Z" transform="translate(-124)"/><path d="M199.08,175.33a2.48,2.48,0,0,1-2.33-1.93,2.56,2.56,0,0,1,.28-1.93,2.21,2.21,0,0,1,1.37-1h0a2.41,2.41,0,0,1,2.84,1.85,2.6,2.6,0,0,1-.23,1.87,2.21,2.21,0,0,1-1.42,1.11A2.13,2.13,0,0,1,199.08,175.33Zm-.52-4.2a1.51,1.51,0,0,0-.93.7,1.84,1.84,0,0,0-.2,1.39,1.71,1.71,0,0,0,2,1.36,1.51,1.51,0,0,0,1-.76,1.9,1.9,0,0,0,.16-1.36,1.7,1.7,0,0,0-2-1.33Z" transform="translate(-124)"/><path class="cls-9" d="M199.39,174.65a1.74,1.74,0,0,1-2-1.36c-.06-.26.88-.6,1.39-.74.77-.17,1.47-.26,1.39-.68-.28-1.11,1.64,2.21-.74,2.78Z" transform="translate(-124)"/><path d="M147.75,180.41a1.06,1.06,0,1,1,1.06-1.06A1.08,1.08,0,0,1,147.75,180.41Zm0-1.42a.36.36,0,1,0,0,.71.37.37,0,0,0,.35-.35A.36.36,0,0,0,147.75,179Z" transform="translate(-124)"/><path d="M151.09,180.41a1.06,1.06,0,1,1,1.06-1.06A1.05,1.05,0,0,1,151.09,180.41Zm0-1.42a.35.35,0,1,0,.35.35A.35.35,0,0,0,151.09,179Z" transform="translate(-124)"/><path d="M150.23,174.68l-3.42-2,1.52-2.63,3.42,2Zm-2.45-2.26,2.2,1.29.81-1.4L148.59,171Z" transform="translate(-124)"/><polygon points="28.46 177.45 22.53 177.45 19.98 172.52 18.05 172.52 18.05 171.39 20.66 171.39 23.22 176.32 27.76 176.32 29.39 173.06 30.41 173.57 28.46 177.45"/><path d="M352.28,180H346a.88.88,0,0,1-.86-.86v-7.31a.87.87,0,0,1,.86-.86h6.29a.88.88,0,0,1,.86.86v7.31A.9.9,0,0,1,352.28,180ZM346,171.66a.15.15,0,0,0-.16.16v7.31a.17.17,0,0,0,.16.16h6.29a.21.21,0,0,0,.16-.16v-7.31a.17.17,0,0,0-.16-.16Z" transform="translate(-124)"/><path d="M357,180h-1.36a.88.88,0,0,1-.86-.86v-7.31a.87.87,0,0,1,.86-.86H357v.71h-1.39a.15.15,0,0,0-.16.16v7.31a.17.17,0,0,0,.16.16H357Z" transform="translate(-124)"/><path d="M342.61,180h-1.39v-.71h1.39a.17.17,0,0,0,.16-.16v-7.31a.15.15,0,0,0-.16-.16h-1.42v-.71h1.42a.87.87,0,0,1,.86.86v7.31A.88.88,0,0,1,342.61,180Z" transform="translate(-124)"/><rect class="cls-10" x="222.69" y="175.65" width="4.31" height="0.71"/><rect class="cls-10" x="222.69" y="177.07" width="2.86" height="0.71"/><rect class="cls-10" x="222.69" y="173.34" width="4.31" height="1.42"/><rect x="118.39" y="174.27" width="10.52" height="1.42"/><rect x="118.39" y="177.67" width="13.32" height="1.42"/><rect x="118.39" y="170.87" width="13.32" height="1.42"/><polygon class="cls-11" points="169.24 223.4 174.03 225.98 181.76 219.49 173.97 229.61 169.24 223.4"/><path class="cls-12" d="M293.09,380.64l0-5,.31-.36,3.75-.66,0-4c0-.39.48-.69,1.21-1.1.17-.09.32-.18.41-.24l.18-.12.17.14a5.25,5.25,0,0,0,.52.33c.64.38,1,.63,1,1l0,5.16,1.44-.71a2.08,2.08,0,0,1,1.63.31.53.53,0,0,1,.28.53l-.14,1.4c-.1.76-1.62,1.95-3.24,3.12l-.35.26Zm.54-4.83,0,4.26,6.4,0,.21-.15c1.94-1.4,3-2.32,3-2.72l.14-1.37a1.87,1.87,0,0,0-1.09-.3l-2.25,1.11,0-6a4.3,4.3,0,0,0-.76-.52l-.42-.26-.28.16a3.7,3.7,0,0,0-.93.64l0,4.46Zm9.78,0h0Z" transform="translate(-124)"/><polygon class="cls-12" points="182.9 374.5 182.38 374.01 184 372.3 182.38 370.62 182.9 370.13 184.97 372.3 182.9 374.5"/><rect class="cls-12" x="169.12" y="371.95" width="2.55" height="0.71"/><rect class="cls-12" x="177.83" y="371.95" width="6.24" height="0.71"/><path class="cls-12" d="M255.94,380.64l-7.15,0-.35-.26c-1.62-1.17-3.13-2.36-3.24-3.11l-.14-1.43a.53.53,0,0,1,.28-.51A2.06,2.06,0,0,1,247,375l1.43.7,0-5.16c0-.33.39-.58,1-1a5.25,5.25,0,0,0,.52-.33l.17-.14.18.12c.1.07.24.15.41.24.73.41,1.21.71,1.21,1.1l0,4,3.75.66.31.36Zm-7-.6,6.4,0,0-4.26,0,0-4-.7,0-4.49a4.84,4.84,0,0,0-.92-.6l-.28-.16-.42.26a4.3,4.3,0,0,0-.76.52l0,6-2.25-1.11a1.82,1.82,0,0,0-1.09.3l.14,1.38c.05.4,1.07,1.31,3,2.71Zm-3.36-4.3v0ZM249,370.6h0Z" transform="translate(-124)"/><rect class="cls-12" x="116.83" y="371.95" width="6.24" height="0.71"/><polygon class="cls-12" points="118.13 374.5 116.06 372.3 118.13 370.13 118.64 370.62 117.03 372.3 118.64 374.01 118.13 374.5"/><rect class="cls-12" x="129.36" y="371.95" width="2.55" height="0.71"/><polygon class="cls-8" points="175 426.36 171.52 423.07 172.3 422.25 175 424.81 177.73 422.25 178.51 423.08 175 426.36"/><rect class="cls-8" x="20.59" y="270.71" width="9.3" height="3.51"/><path class="cls-10" d="M154.17,274.5h-9.86v-4.08h9.86Zm-9.3-.57h8.73V271h-8.73Z" transform="translate(-124)"/><path class="cls-10" d="M203.76,274.48h-4.05v-4.05h4.05Zm-3.49-.57h2.92V271h-2.92Z" transform="translate(-124)"/><path class="cls-10" d="M198,274.48h-4v-4.05h4Zm-3.46-.57h2.89V271h-2.89Z" transform="translate(-124)"/><path class="cls-10" d="M198,279.41h-4v-4h4Zm-3.46-.57h2.89v-2.89h-2.89Z" transform="translate(-124)"/><path class="cls-10" d="M203.76,279.41h-4.05v-4h4.05Zm-3.49-.57h2.92v-2.89h-2.92Z" transform="translate(-124)"/><rect class="cls-10" x="121.51" y="272.24" width="9.3" height="0.71"/><rect class="cls-10" x="120.26" y="275.01" width="9.64" height="0.71"/><rect class="cls-10" x="121.51" y="277.79" width="9.3" height="0.71"/><path class="cls-9" d="M248.28,273.71a1.13,1.13,0,0,0,1.11-1.11,1.11,1.11,0,0,0-2.21,0,1.13,1.13,0,0,0,1.11,1.11Z" transform="translate(-124)"/><path class="cls-10" d="M248.28,274.06a1.48,1.48,0,0,1-1.46-1.46,1.46,1.46,0,0,1,2.92,0A1.48,1.48,0,0,1,248.28,274.06Zm0-2.18a.75.75,0,0,0-.75.72.75.75,0,1,0,1.5,0A.75.75,0,0,0,248.28,271.88Z" transform="translate(-124)"/><path class="cls-9" d="M251.51,276.46a1.09,1.09,0,1,0,0-2.18,1.09,1.09,0,0,0,0,2.18Z" transform="translate(-124)"/><path class="cls-10" d="M251.52,276.81a1.45,1.45,0,0,1,0-2.89,1.45,1.45,0,1,1,0,2.89Zm0-2.18a.74.74,0,0,0,0,1.47.74.74,0,1,0,0-1.47Z" transform="translate(-124)"/><path class="cls-9" d="M248.28,279.24a1.09,1.09,0,1,0-1.11-1.11,1.11,1.11,0,0,0,1.11,1.11Z" transform="translate(-124)"/><path class="cls-10" d="M248.28,279.59a1.45,1.45,0,1,1,1.46-1.46A1.46,1.46,0,0,1,248.28,279.59Zm0-2.18a.74.74,0,1,0,.75.72A.75.75,0,0,0,248.28,277.41Z" transform="translate(-124)"/><rect class="cls-10" x="20.23" y="275.89" width="10.03" height="0.94"/><rect class="cls-10" x="20.23" y="278.5" width="5.22" height="0.94"/><rect class="cls-8" x="20.59" y="320.71" width="9.3" height="3.51"/><path class="cls-13" d="M154.17,324.5h-9.86v-4.08h9.86Zm-9.3-.57h8.73V321h-8.73Z" transform="translate(-124)"/><path class="cls-13" d="M203.76,324.48h-4.05v-4.05h4.05Zm-3.49-.57h2.92V321h-2.92Z" transform="translate(-124)"/><path class="cls-13" d="M198,324.48h-4v-4.05h4Zm-3.46-.57h2.89V321h-2.89Z" transform="translate(-124)"/><path class="cls-13" d="M198,329.41h-4v-4h4Zm-3.46-.57h2.89v-2.89h-2.89Z" transform="translate(-124)"/><path class="cls-13" d="M203.76,329.41h-4.05v-4h4.05Zm-3.49-.57h2.92v-2.89h-2.92Z" transform="translate(-124)"/><rect class="cls-13" x="121.51" y="322.24" width="9.3" height="0.71"/><rect class="cls-13" x="120.26" y="325.01" width="9.64" height="0.71"/><rect class="cls-13" x="121.51" y="327.79" width="9.3" height="0.71"/><path class="cls-9" d="M248.28,323.71a1.13,1.13,0,0,0,1.11-1.11,1.11,1.11,0,0,0-2.21,0,1.13,1.13,0,0,0,1.11,1.11Z" transform="translate(-124)"/><path class="cls-13" d="M248.28,324.06a1.48,1.48,0,0,1-1.46-1.46,1.46,1.46,0,0,1,2.92,0A1.48,1.48,0,0,1,248.28,324.06Zm0-2.18a.75.75,0,0,0-.75.72.75.75,0,0,0,1.5,0A.75.75,0,0,0,248.28,321.88Z" transform="translate(-124)"/><path class="cls-9" d="M251.51,326.46a1.09,1.09,0,1,0,0-2.18,1.09,1.09,0,0,0,0,2.18Z" transform="translate(-124)"/><path class="cls-13" d="M251.52,326.81a1.45,1.45,0,0,1,0-2.89,1.45,1.45,0,1,1,0,2.89Zm0-2.18a.74.74,0,0,0,0,1.47.74.74,0,1,0,0-1.47Z" transform="translate(-124)"/><path class="cls-9" d="M248.28,329.24a1.09,1.09,0,1,0-1.11-1.11,1.11,1.11,0,0,0,1.11,1.11Z" transform="translate(-124)"/><path class="cls-13" d="M248.28,329.59a1.45,1.45,0,1,1,0-2.89,1.45,1.45,0,1,1,0,2.89Zm0-2.18a.74.74,0,1,0,.75.72A.75.75,0,0,0,248.28,327.41Z" transform="translate(-124)"/><rect class="cls-13" x="20.23" y="325.89" width="10.03" height="0.94"/><rect class="cls-13" x="20.23" y="328.5" width="5.22" height="0.94"/><rect class="cls-7" x="296.11" y="473.63" width="5.77" height="0.99" transform="translate(-371.68 350.29) rotate(-45)"/><rect class="cls-7" x="298.5" y="471.24" width="0.99" height="5.77" transform="translate(-371.68 350.29) rotate(-45)"/><polygon class="cls-14" points="125.01 426.26 121.73 423.18 122.51 422.35 125.01 424.7 127.52 422.35 128.29 423.18 125.01 426.26"/><path class="cls-13" d="M147.75,230.19a1.06,1.06,0,1,1,1.06-1.06A1.08,1.08,0,0,1,147.75,230.19Zm0-1.42a.36.36,0,1,0,0,.71.36.36,0,0,0,.35-.35A.37.37,0,0,0,147.75,228.77Z" transform="translate(-124)"/><path class="cls-13" d="M151.09,230.19a1.06,1.06,0,1,1,1.06-1.06A1.05,1.05,0,0,1,151.09,230.19Zm0-1.42a.35.35,0,1,0,.35.35A.35.35,0,0,0,151.09,228.77Z" transform="translate(-124)"/><path class="cls-13" d="M150.23,224.45l-3.42-2,1.52-2.63,3.42,2Zm-2.45-2.26,2.2,1.29.81-1.4-2.19-1.29Z" transform="translate(-124)"/><polygon class="cls-13" points="28.46 227.22 22.53 227.22 19.98 222.29 18.05 222.29 18.05 221.16 20.66 221.16 23.22 226.09 27.76 226.09 29.39 222.83 30.41 223.34 28.46 227.22"/><path class="cls-13" d="M201.8,229.9h-5.64a.92.92,0,0,1-.89-.92v-1.67a2,2,0,0,1,2-2.06H198v.35a1,1,0,0,0,1,1.06,1,1,0,0,0,1-1v-.35l.35-.08h.37a2.06,2.06,0,0,1,2.06,2.06V229A.92.92,0,0,1,201.8,229.9ZM197.29,226a1.33,1.33,0,0,0-1.32,1.35V229a.21.21,0,0,0,.18.21h5.64A.22.22,0,0,0,202,229v-1.67a1.35,1.35,0,0,0-1.35-1.35h0a1.68,1.68,0,0,1-3.32,0Z" transform="translate(-124)"/><path class="cls-11" d="M198.48,220.51a2.13,2.13,0,0,1,1,4.14,2,2,0,0,1-2.38-1.59,2.05,2.05,0,0,1,1.39-2.55Z" transform="translate(-124)"/><path class="cls-13" d="M199,225.05a2.41,2.41,0,0,1-2.29-1.91,2.62,2.62,0,0,1,.28-2,2.21,2.21,0,0,1,1.37-1,2.49,2.49,0,0,1,1.16,4.83A2.21,2.21,0,0,1,199,225.05Zm-.13-4.24a1.44,1.44,0,0,0-.34,0h0a1.5,1.5,0,0,0-.93.69,1.9,1.9,0,0,0-.2,1.43,1.66,1.66,0,0,0,2,1.33,1.72,1.72,0,0,0,1.16-2.1A1.77,1.77,0,0,0,198.9,220.81Z" transform="translate(-124)"/><path class="cls-9" d="M199.36,224.39a1.77,1.77,0,0,1-2-1.36c-.06-.26.91-.62,1.42-.74.77-.2,1.47-.28,1.36-.71-.26-1.11,1.64,2.21-.74,2.81Z" transform="translate(-124)"/><polygon class="cls-1" points="169.25 172.85 174.04 175.43 181.75 168.94 173.98 179.06 169.25 172.85"/><path class="cls-13" d="M352.13,229.52h-6.26a.87.87,0,0,1-.86-.86v-7.29a.87.87,0,0,1,.86-.86h6.26a.87.87,0,0,1,.86.86v7.29A.87.87,0,0,1,352.13,229.52Zm-6.26-8.31a.15.15,0,0,0-.16.16v7.29a.15.15,0,0,0,.16.16h6.26a.15.15,0,0,0,.16-.16v-7.29a.15.15,0,0,0-.16-.16Z" transform="translate(-124)"/><path class="cls-13" d="M356.89,229.52h-1.39a.88.88,0,0,1-.86-.86v-7.29a.87.87,0,0,1,.86-.86h1.42v.71h-1.42a.15.15,0,0,0-.16.16v7.29a.18.18,0,0,0,.16.16h1.39Z" transform="translate(-124)"/><path class="cls-13" d="M342.49,229.52h-1.39v-.71h1.39a.15.15,0,0,0,.16-.16v-7.29a.15.15,0,0,0-.16-.16h-1.42v-.71h1.42a.87.87,0,0,1,.86.86v7.29A.87.87,0,0,1,342.49,229.52Z" transform="translate(-124)"/><rect class="cls-15" x="222.58" y="225.21" width="4.31" height="0.71"/><rect class="cls-15" x="222.58" y="226.63" width="2.86" height="0.71"/><rect class="cls-15" x="222.58" y="222.9" width="4.31" height="1.42"/><rect class="cls-13" x="118.34" y="224.29" width="10.52" height="1.42"/><rect class="cls-13" x="118.34" y="227.69" width="13.32" height="1.42"/><rect class="cls-13" x="118.34" y="220.89" width="13.32" height="1.42"/><polygon class="cls-16" points="225.29 127.85 224.57 127.17 226.6 125.01 224.57 122.86 225.29 122.18 227.96 125.01 225.29 127.85"/><rect class="cls-16" x="222.07" y="124.57" width="4.99" height="0.99"/><rect x="345.29" y="473.5" width="7.42" height="0.99" transform="translate(-356.95 385.61) rotate(-45)"/><rect x="348.5" y="470.29" width="0.99" height="7.42" transform="translate(-356.95 385.61) rotate(-45)"/><polygon class="cls-17" points="225 426.31 221.01 422.54 221.79 421.72 225 424.75 228.21 421.72 228.99 422.54 225 426.31"/><rect class="cls-12" x="17.09" y="473.49" width="0.28" height="2.89"/><rect class="cls-12" x="17.94" y="473.49" width="0.28" height="2.89"/><rect class="cls-12" x="18.82" y="473.49" width="0.28" height="2.89"/><rect class="cls-12" x="19.67" y="473.49" width="0.28" height="2.89"/><rect class="cls-12" x="20.55" y="471.62" width="0.28" height="4.76"/><rect class="cls-12" x="21.4" y="473.49" width="0.28" height="2.89"/><rect class="cls-12" x="22.28" y="473.49" width="0.28" height="2.89"/><rect class="cls-12" x="23.13" y="473.49" width="0.28" height="2.89"/><rect class="cls-12" x="24.01" y="473.49" width="0.28" height="2.89"/><rect class="cls-12" x="24.86" y="471.62" width="0.28" height="4.76"/><rect class="cls-12" x="25.74" y="473.49" width="0.28" height="2.89"/><rect class="cls-12" x="26.62" y="473.49" width="0.28" height="2.89"/><rect class="cls-12" x="27.47" y="473.49" width="0.28" height="2.89"/><rect class="cls-12" x="28.35" y="473.49" width="0.28" height="2.89"/><rect class="cls-12" x="29.2" y="471.62" width="0.28" height="4.76"/><rect class="cls-12" x="30.07" y="473.49" width="0.28" height="2.89"/><rect class="cls-12" x="30.92" y="473.49" width="0.28" height="2.89"/><rect class="cls-12" x="31.8" y="473.49" width="0.28" height="2.89"/><rect class="cls-12" x="32.65" y="473.49" width="0.28" height="2.89"/><rect class="cls-12" x="33.53" y="471.62" width="0.28" height="4.76"/><rect class="cls-12" x="16.21" y="471.62" width="0.28" height="4.76"/><polygon class="cls-18" points="124.05 476.46 123.63 476.07 125.57 474 123.63 471.96 124.04 471.56 126.35 474 124.05 476.46"/><polygon class="cls-13" points="225.01 26.97 221.73 23.88 222.51 23.06 225.01 25.41 227.52 23.06 228.29 23.88 225.01 26.97"/><path id="_Контур_" data-name="&lt;Контур&gt;" class="cls-8" d="M349.36,522.8V522a.44.44,0,0,1,.46-.5H351v-1.77h-1.59a2,2,0,0,0-2.17,2.16v.93h-1v2.06h1V530h2.06v-5.16h1.53l.07-.81.11-1.25Z" transform="translate(-124)"/><path class="cls-8" d="M305.49,521.94a3.37,3.37,0,0,0-1.35-.12,7.82,7.82,0,0,0-1.35.06,8.34,8.34,0,0,0-.79,1.47c-.43.81-1,1.6-1.28,1.59s-.33-1.34-.31-2.33c0-.65-.09-.85-.18-.92a3.87,3.87,0,0,0-.86-.31s-1.87-.14-2.14.67c.36,0,1-.07.73,2.45,0,.12-.29,1.16-1.16-.24-.22-.35-1.06-2.44-1.35-2.45a6.63,6.63,0,0,0-2.26.12c-.31.17.42,1.62,1.65,3.55,1,1.58,2.07,2.81,3.91,3.12a4.52,4.52,0,0,0,1.53-.06c.19-.1,0-1.46.61-1.59.29-.06,1.41,1.42,1.84,1.59a4.37,4.37,0,0,0,1.41.12c.63,0,1.34.06,1.41-.37.15-.94-1.9-2.17-2-2.75,0-.42.75-1.19,1.16-1.77S305.8,522.2,305.49,521.94Z" transform="translate(-124)"/><path id="_Контур_2" data-name="&lt;Контур&gt;" class="cls-8" d="M154.87,521.79a4.69,4.69,0,0,1-1.33.36,2.3,2.3,0,0,0,1-1.27,4.69,4.69,0,0,1-1.48.56,2.34,2.34,0,0,0-1.7-.72,2.29,2.29,0,0,0-2.26,2.81,6.63,6.63,0,0,1-4.79-2.39,2.25,2.25,0,0,0-.32,1.15,2.28,2.28,0,0,0,1,1.9,2.35,2.35,0,0,1-1.05-.29v0a2.25,2.25,0,0,0,.16.83,2.32,2.32,0,0,0,1.71,1.42,2.4,2.4,0,0,1-.61.08,2.33,2.33,0,0,1-.44,0,2.32,2.32,0,0,0,2.17,1.59,4.71,4.71,0,0,1-2.89,1,4.81,4.81,0,0,1-.56,0,6.66,6.66,0,0,0,3.56,1,6.47,6.47,0,0,0,6.46-5.13,6.29,6.29,0,0,0,.16-1.38c0-.1,0-.2,0-.3A4.67,4.67,0,0,0,154.87,521.79Z" transform="translate(-124)"/><path class="cls-8" d="M254.37,524.38a4.89,4.89,0,0,1-.31,1.77,2.93,2.93,0,0,1-.87,1.26,2,2,0,0,1-1.31.46,1.63,1.63,0,0,1-.88-.24,1.37,1.37,0,0,1-.55-.63h-.11a2.31,2.31,0,0,1-1.85.87,2.47,2.47,0,0,1-1.88-.72,2.72,2.72,0,0,1-.69-2,3,3,0,0,1,.9-2.29,3.25,3.25,0,0,1,2.35-.87,8.15,8.15,0,0,1,1.27.11,7,7,0,0,1,1.15.27l-.15,3.29q0,.93.51.93t.69-.63a4.43,4.43,0,0,0,.26-1.64,4,4,0,0,0-.45-1.91,3.06,3.06,0,0,0-1.27-1.27,3.89,3.89,0,0,0-1.87-.44,4.77,4.77,0,0,0-2.36.56,3.73,3.73,0,0,0-1.54,1.61,5.3,5.3,0,0,0-.53,2.43,3.47,3.47,0,0,0,3.87,3.84,8.67,8.67,0,0,0,1.57-.16,10.4,10.4,0,0,0,1.68-.46v1.29a8.08,8.08,0,0,1-3.19.61,5.58,5.58,0,0,1-4-1.34,4.88,4.88,0,0,1-1.43-3.74,6.26,6.26,0,0,1,.73-3,5.29,5.29,0,0,1,2.08-2.12,6.15,6.15,0,0,1,3.1-.77,5.64,5.64,0,0,1,2.64.61,4.29,4.29,0,0,1,1.8,1.72A5.14,5.14,0,0,1,254.37,524.38Zm-6.88.84q0,1.42,1.16,1.42a1.07,1.07,0,0,0,.92-.43,2.7,2.7,0,0,0,.38-1.39l.09-1.49a3.69,3.69,0,0,0-.77-.07,1.66,1.66,0,0,0-1.31.52A2.07,2.07,0,0,0,247.49,525.22Z" transform="translate(-124)"/><path class="cls-8" d="M201.71,529.94a.77.77,0,0,1,.23.56.81.81,0,0,1-.81.81.75.75,0,0,1-.56-.24l-1.5-1.5-1.5,1.5a.79.79,0,0,1-.56.24.76.76,0,0,1-.57-.23.78.78,0,0,1-.24-.57.81.81,0,0,1,.23-.58L198,528.4a5.29,5.29,0,0,1-1.6-.65.81.81,0,0,1-.25-1.11.79.79,0,0,1,1.11-.25,3.45,3.45,0,0,0,1.84.53,3.31,3.31,0,0,0,1.84-.53.79.79,0,0,1,1.11.25.81.81,0,0,1-.25,1.11,5.13,5.13,0,0,1-1.6.65Zm-4-4.14a2.75,2.75,0,0,1-1-1,2.72,2.72,0,0,1,0-2.74,2.71,2.71,0,0,1,1-1,2.74,2.74,0,0,1,1.37-.37,2.62,2.62,0,0,1,1.37.36,2.76,2.76,0,0,1,1,1,2.72,2.72,0,0,1,0,2.74,2.76,2.76,0,0,1-1,1,2.72,2.72,0,0,1-2.74,0Zm.57-3.16a1.14,1.14,0,0,0,0,1.6,1.08,1.08,0,0,0,.8.33,1.1,1.1,0,0,0,.81-.33,1.07,1.07,0,0,0,.33-.8,1.12,1.12,0,0,0-.33-.8,1.13,1.13,0,0,0-1.6,0Z" transform="translate(-124)"/></svg>